<svg width="980" height="551" xmlns="http://www.w3.org/2000/svg" xmlns:xlink="http://www.w3.org/1999/xlink">
<path fill="#ff595e" d="M 824.61 142.94 Q 824.61 142.94 824.61 142.95 824.60 142.95 824.60 142.95 824.60 142.96 824.60 142.95 Z"></path><path fill="#ff595e" d="M 808.86 140.36 Q 808.86 140.36 807.32 141.06 805.77 141.75 804.78 141.39 803.80 141.02 802.46 139.72 801.13 138.41 800.68 136.98 800.23 135.56 800.06 134.33 799.90 133.11 800.02 131.40 800.14 129.69 800.71 128.40 801.27 127.11 801.92 126.25 802.57 125.40 803.32 124.66 804.07 123.92 805.53 123.03 806.99 122.14 808.92 121.26 810.86 120.38 812.40 119.89 813.94 119.39 816.29 118.81 818.64 118.22 819.62 118.02 820.60 117.81 821.78 117.64 822.97 117.47 824.13 117.39 825.29 117.31 827.11 117.16 828.92 117.02 829.99 117.00 831.06 116.98 832.82 117.04 834.59 117.10 836.08 117.33 837.57 117.55 838.66 117.92 839.75 118.29 840.85 118.96 841.94 119.62 842.69 120.36 843.43 121.09 844.21 122.29 844.98 123.49 845.31 124.58 845.63 125.66 845.69 127.16 845.74 128.65 845.66 130.30 845.59 131.95 844.99 133.26 844.39 134.57 843.52 135.57 842.64 136.56 841.17 137.78 839.70 139.01 838.75 139.59 837.80 140.17 836.70 140.81 835.60 141.44 833.97 142.11 832.34 142.78 831.14 143.23 829.95 143.68 828.26 144.08 826.57 144.48 825.35 144.73 824.13 144.97 822.22 145.19 820.30 145.40 818.19 145.58 816.08 145.76 814.63 145.84 813.18 145.91 811.31 145.85 809.43 145.79 807.54 145.59 805.65 145.38 804.37 145.12 803.09 144.85 801.97 144.59 800.84 144.33 799.02 141.91 797.19 139.50 797.20 139.50 797.20 139.50 797.21 139.50 797.21 139.50 799.48 139.97 801.74 140.43 802.83 140.69 803.92 140.94 805.00 141.17 806.09 141.41 807.83 141.60 809.57 141.80 811.27 141.86 812.97 141.92 814.36 141.85 815.74 141.77 817.81 141.60 819.87 141.42 821.60 141.24 823.33 141.05 824.50 140.82 825.67 140.58 827.11 140.26 828.55 139.93 829.69 139.50 830.83 139.08 832.23 138.52 833.62 137.96 834.67 137.36 835.73 136.75 837.21 135.74 838.70 134.73 839.50 133.96 840.31 133.19 840.97 132.29 841.63 131.40 841.68 130.04 841.74 128.69 841.71 127.45 841.67 126.21 841.25 125.25 840.83 124.29 839.92 123.32 839.01 122.34 837.89 121.91 836.77 121.47 835.53 121.28 834.30 121.09 832.71 121.03 831.13 120.98 830.11 120.99 829.09 121.01 827.32 121.16 825.54 121.31 824.54 121.37 823.54 121.43 821.51 121.78 819.48 122.13 817.32 122.67 815.16 123.20 813.76 123.65 812.36 124.09 810.68 124.84 808.99 125.60 807.91 126.20 806.84 126.80 806.07 127.64 805.30 128.47 804.69 129.44 804.08 130.40 803.98 131.57 803.88 132.73 804.03 133.84 804.18 134.95 804.45 135.91 804.71 136.88 805.66 137.36 806.60 137.83 807.73 139.09 808.87 140.34 808.86 140.35 Z"></path>
</svg>